<mxfile host="app.diagrams.net" modified="2021-11-22T04:08:47.075Z" agent="5.0 (Windows NT 10.0; Win64; x64) AppleWebKit/537.36 (KHTML, like Gecko) Chrome/96.0.4664.45 Safari/537.36" etag="gNcd4IjF5nfXfD3E-ISl" version="15.5.9" type="github">
  <diagram name="Page-1" id="90a13364-a465-7bf4-72fc-28e22215d7a0">
    <mxGraphModel dx="782" dy="514" grid="1" gridSize="10" guides="1" tooltips="1" connect="1" arrows="1" fold="1" page="1" pageScale="1.5" pageWidth="1169" pageHeight="826" background="none" math="0" shadow="0">
      <root>
        <mxCell id="0" style=";html=1;" />
        <mxCell id="1" style=";html=1;" parent="0" />
        <mxCell id="3a17f1ce550125da-13" style="edgeStyle=elbowEdgeStyle;rounded=0;html=1;startArrow=none;startFill=0;jettySize=auto;orthogonalLoop=1;fontSize=18;elbow=vertical;" parent="1" source="3a17f1ce550125da-2" target="3a17f1ce550125da-4" edge="1">
          <mxGeometry relative="1" as="geometry" />
        </mxCell>
        <mxCell id="3a17f1ce550125da-14" style="edgeStyle=elbowEdgeStyle;rounded=0;html=1;startArrow=none;startFill=0;jettySize=auto;orthogonalLoop=1;fontSize=18;elbow=vertical;" parent="1" source="3a17f1ce550125da-2" target="3a17f1ce550125da-5" edge="1">
          <mxGeometry relative="1" as="geometry" />
        </mxCell>
        <mxCell id="3a17f1ce550125da-15" style="edgeStyle=elbowEdgeStyle;rounded=0;html=1;startArrow=none;startFill=0;jettySize=auto;orthogonalLoop=1;fontSize=18;elbow=vertical;" parent="1" source="3a17f1ce550125da-2" target="3a17f1ce550125da-6" edge="1">
          <mxGeometry relative="1" as="geometry" />
        </mxCell>
        <mxCell id="3a17f1ce550125da-16" style="edgeStyle=elbowEdgeStyle;rounded=0;html=1;startArrow=none;startFill=0;jettySize=auto;orthogonalLoop=1;fontSize=18;elbow=vertical;" parent="1" source="3a17f1ce550125da-2" target="3a17f1ce550125da-7" edge="1">
          <mxGeometry relative="1" as="geometry" />
        </mxCell>
        <mxCell id="3a17f1ce550125da-17" style="edgeStyle=elbowEdgeStyle;rounded=0;html=1;startArrow=none;startFill=0;jettySize=auto;orthogonalLoop=1;fontSize=18;" parent="1" source="3a17f1ce550125da-10" target="3a17f1ce550125da-2" edge="1">
          <mxGeometry relative="1" as="geometry">
            <Array as="points">
              <mxPoint x="907" y="754" />
            </Array>
          </mxGeometry>
        </mxCell>
        <mxCell id="3a17f1ce550125da-2" value="Custom switch Matrix&lt;div&gt;&lt;br&gt;&lt;/div&gt;&lt;div&gt;(switches, couplers, mixer, amps, attenu, splitters)&lt;/div&gt;" style="whiteSpace=wrap;html=1;shadow=1;fontSize=18;fillColor=#f5f5f5;strokeColor=#666666;" parent="1" vertex="1">
          <mxGeometry x="787" y="454" width="170" height="280" as="geometry" />
        </mxCell>
        <mxCell id="3a17f1ce550125da-4" value="DC Motor" style="whiteSpace=wrap;html=1;shadow=1;fontSize=18;fillColor=#f5f5f5;strokeColor=#666666;" parent="1" vertex="1">
          <mxGeometry x="1037" y="444" width="120" height="60" as="geometry" />
        </mxCell>
        <mxCell id="3a17f1ce550125da-5" value="Network Analyzer" style="whiteSpace=wrap;html=1;shadow=1;fontSize=18;fillColor=#f5f5f5;strokeColor=#666666;" parent="1" vertex="1">
          <mxGeometry x="1037" y="524" width="120" height="60" as="geometry" />
        </mxCell>
        <mxCell id="3a17f1ce550125da-6" value="Power Meter" style="whiteSpace=wrap;html=1;shadow=1;fontSize=18;fillColor=#f5f5f5;strokeColor=#666666;" parent="1" vertex="1">
          <mxGeometry x="1037" y="604" width="120" height="60" as="geometry" />
        </mxCell>
        <mxCell id="3a17f1ce550125da-7" value="Freq. Count" style="whiteSpace=wrap;html=1;shadow=1;fontSize=18;fillColor=#f5f5f5;strokeColor=#666666;" parent="1" vertex="1">
          <mxGeometry x="1037" y="684" width="120" height="60" as="geometry" />
        </mxCell>
        <mxCell id="3a17f1ce550125da-20" style="edgeStyle=elbowEdgeStyle;rounded=0;html=1;startArrow=none;startFill=0;jettySize=auto;orthogonalLoop=1;fontSize=18;elbow=vertical;" parent="1" source="3a17f1ce550125da-8" target="3a17f1ce550125da-2" edge="1">
          <mxGeometry relative="1" as="geometry">
            <Array as="points">
              <mxPoint x="757" y="514" />
            </Array>
          </mxGeometry>
        </mxCell>
        <mxCell id="3a17f1ce550125da-8" value="3V DC Power Supply" style="whiteSpace=wrap;html=1;shadow=1;fontSize=18;fillColor=#f5f5f5;strokeColor=#666666;" parent="1" vertex="1">
          <mxGeometry x="597" y="444" width="120" height="150" as="geometry" />
        </mxCell>
        <mxCell id="3a17f1ce550125da-21" style="edgeStyle=elbowEdgeStyle;rounded=0;html=1;startArrow=none;startFill=0;jettySize=auto;orthogonalLoop=1;fontSize=18;elbow=vertical;" parent="1" source="3a17f1ce550125da-9" target="3a17f1ce550125da-2" edge="1">
          <mxGeometry relative="1" as="geometry" />
        </mxCell>
        <mxCell id="3a17f1ce550125da-9" value="Microphone" style="whiteSpace=wrap;html=1;shadow=1;fontSize=18;fillColor=#f5f5f5;strokeColor=#666666;" parent="1" vertex="1">
          <mxGeometry x="597" y="634" width="120" height="60" as="geometry" />
        </mxCell>
        <mxCell id="3a17f1ce550125da-10" value="DUT" style="whiteSpace=wrap;html=1;shadow=1;fontSize=18;fillColor=#f5f5f5;strokeColor=#666666;" parent="1" vertex="1">
          <mxGeometry x="799.5" y="774" width="145" height="120" as="geometry" />
        </mxCell>
        <mxCell id="3a17f1ce550125da-11" value="3V DC Power Supply" style="whiteSpace=wrap;html=1;shadow=1;fontSize=18;fillColor=#f5f5f5;strokeColor=#666666;" parent="1" vertex="1">
          <mxGeometry x="597" y="804" width="120" height="60" as="geometry" />
        </mxCell>
        <mxCell id="3a17f1ce550125da-22" style="edgeStyle=elbowEdgeStyle;rounded=0;html=1;startArrow=none;startFill=0;jettySize=auto;orthogonalLoop=1;fontSize=18;" parent="1" source="3a17f1ce550125da-10" target="3a17f1ce550125da-2" edge="1">
          <mxGeometry relative="1" as="geometry">
            <mxPoint x="937" y="784" as="sourcePoint" />
            <mxPoint x="937" y="744" as="targetPoint" />
            <Array as="points">
              <mxPoint x="927" y="754" />
              <mxPoint x="907" y="754" />
            </Array>
          </mxGeometry>
        </mxCell>
        <mxCell id="3a17f1ce550125da-23" style="edgeStyle=elbowEdgeStyle;rounded=0;html=1;startArrow=none;startFill=0;jettySize=auto;orthogonalLoop=1;fontSize=18;" parent="1" edge="1">
          <mxGeometry relative="1" as="geometry">
            <mxPoint x="887" y="774" as="sourcePoint" />
            <mxPoint x="887" y="734" as="targetPoint" />
            <Array as="points">
              <mxPoint x="887" y="754" />
              <mxPoint x="887" y="754" />
            </Array>
          </mxGeometry>
        </mxCell>
        <mxCell id="3a17f1ce550125da-24" style="edgeStyle=elbowEdgeStyle;rounded=0;html=1;startArrow=none;startFill=0;jettySize=auto;orthogonalLoop=1;fontSize=18;" parent="1" edge="1">
          <mxGeometry relative="1" as="geometry">
            <mxPoint x="857" y="734" as="sourcePoint" />
            <mxPoint x="857" y="774" as="targetPoint" />
            <Array as="points">
              <mxPoint x="857" y="754" />
              <mxPoint x="887" y="764" />
            </Array>
          </mxGeometry>
        </mxCell>
        <mxCell id="3a17f1ce550125da-25" style="edgeStyle=elbowEdgeStyle;rounded=0;html=1;startArrow=none;startFill=0;jettySize=auto;orthogonalLoop=1;fontSize=18;" parent="1" edge="1">
          <mxGeometry relative="1" as="geometry">
            <mxPoint x="837" y="734" as="sourcePoint" />
            <mxPoint x="837" y="774" as="targetPoint" />
            <Array as="points">
              <mxPoint x="837" y="754" />
              <mxPoint x="867" y="764" />
            </Array>
          </mxGeometry>
        </mxCell>
        <mxCell id="3a17f1ce550125da-26" style="edgeStyle=elbowEdgeStyle;rounded=0;html=1;startArrow=none;startFill=0;jettySize=auto;orthogonalLoop=1;fontSize=18;" parent="1" edge="1">
          <mxGeometry relative="1" as="geometry">
            <mxPoint x="817" y="734" as="sourcePoint" />
            <mxPoint x="817" y="774" as="targetPoint" />
            <Array as="points">
              <mxPoint x="817" y="754" />
              <mxPoint x="847" y="764" />
            </Array>
          </mxGeometry>
        </mxCell>
        <mxCell id="av7x1vtlssBH21jFH1Pa-1" value="" style="endArrow=none;html=1;rounded=0;exitX=1;exitY=0.617;exitDx=0;exitDy=0;exitPerimeter=0;" edge="1" parent="1" source="3a17f1ce550125da-11">
          <mxGeometry width="50" height="50" relative="1" as="geometry">
            <mxPoint x="830" y="690" as="sourcePoint" />
            <mxPoint x="750" y="820" as="targetPoint" />
          </mxGeometry>
        </mxCell>
        <mxCell id="av7x1vtlssBH21jFH1Pa-2" value="" style="endArrow=classic;html=1;rounded=0;" edge="1" parent="1">
          <mxGeometry width="50" height="50" relative="1" as="geometry">
            <mxPoint x="547" y="663" as="sourcePoint" />
            <mxPoint x="597" y="663" as="targetPoint" />
          </mxGeometry>
        </mxCell>
        <mxCell id="av7x1vtlssBH21jFH1Pa-3" value="" style="endArrow=classic;html=1;rounded=0;exitX=1;exitY=0.5;exitDx=0;exitDy=0;" edge="1" parent="1" source="3a17f1ce550125da-4">
          <mxGeometry width="50" height="50" relative="1" as="geometry">
            <mxPoint x="1010" y="600" as="sourcePoint" />
            <mxPoint x="1250" y="474" as="targetPoint" />
          </mxGeometry>
        </mxCell>
        <mxCell id="av7x1vtlssBH21jFH1Pa-4" value="Wheel Axel" style="whiteSpace=wrap;html=1;shadow=1;fontSize=18;fillColor=#f5f5f5;strokeColor=#666666;" vertex="1" parent="1">
          <mxGeometry x="1250" y="444" width="120" height="60" as="geometry" />
        </mxCell>
        <mxCell id="av7x1vtlssBH21jFH1Pa-5" value="Microphone Sensitivity" style="whiteSpace=wrap;html=1;shadow=1;fontSize=18;fillColor=#f5f5f5;strokeColor=#666666;" vertex="1" parent="1">
          <mxGeometry x="430" y="634" width="120" height="60" as="geometry" />
        </mxCell>
      </root>
    </mxGraphModel>
  </diagram>
</mxfile>
